<svg width="189" height="47" viewBox="0 0 189 47" fill="none" xmlns="http://www.w3.org/2000/svg">
<path d="M7.23575 23.1301C6.99742 22.6534 6.91797 22.2562 6.75909 21.7796L4.93191 12.6437L4.13749 8.51267V8.43325L4.05805 7.55938C3.97861 6.2883 4.53471 5.09667 5.6469 4.46113C6.12355 4.14336 6.60021 4.06389 7.07686 4.14334L7.95072 4.30223L12.2406 4.93776L22.5681 6.52661C23.8392 6.76494 24.7925 7.95659 24.6336 9.22767V9.38654C24.4747 10.6576 23.2831 11.5315 22.012 11.3726L13.3528 10.0221L10.4134 9.54544C9.69846 9.46599 9.14236 10.0221 9.30124 10.7371L9.85735 13.4381L11.2079 20.8262C11.4462 21.9384 12.8762 22.8918 13.9884 22.7329C14.3856 22.6534 14.7828 22.4945 15.0211 22.1768C15.4978 21.7001 15.7361 21.0646 15.5772 20.3496L14.3061 14.3914C14.3061 14.312 14.3856 14.1531 14.465 14.1531L21.5354 15.2653C25.1103 15.8214 28.288 13.4381 28.7646 9.94265C29.003 7.87715 28.2085 5.5733 26.7786 4.14334C25.8253 3.19003 24.9514 2.5545 23.442 2.31617L8.98348 0.0917936C-1.50292 -1.09984 0.0859305 9.70431 0.0859305 9.70431L2.23087 21.4618C2.70753 23.9245 3.81973 26.2283 5.48802 28.0555C8.10962 30.836 12.4789 33.1398 18.9932 28.6911C30.7507 20.6674 35.835 16.0597 39.0921 22.574C39.3305 23.1301 39.5688 23.6862 39.6483 24.3217L41.1577 33.4576L41.9521 37.5886V37.668L42.0315 38.5419C42.111 39.813 41.5549 41.0046 40.4427 41.6402C39.966 41.9579 39.4894 42.0374 39.0127 41.9579L38.1388 41.7991L33.849 41.1635L23.5214 39.5747C22.2504 39.3363 21.2971 38.1447 21.4559 36.8736V36.7147C21.6148 35.4436 22.8065 34.5698 24.0775 34.7287L32.7368 36.0792L35.6761 36.5559C36.3911 36.6353 36.9472 36.0792 36.7883 35.3642L36.2322 32.6632L34.8817 25.275C34.6434 24.1628 33.2134 23.2095 32.1012 23.3684C31.704 23.4479 31.3068 23.6067 31.0685 23.9245C30.5918 24.4012 30.3535 25.0367 30.5124 25.7517L31.7834 31.7099C31.7834 31.7893 31.704 31.9482 31.6246 31.9482L24.5542 30.836C20.9793 30.2799 17.8016 32.6632 17.3249 36.1586C17.0866 38.2241 17.881 40.528 19.311 41.9579C20.2643 42.9112 21.1382 43.5468 22.6476 43.7851L37.1061 46.0095C47.5925 47.2011 46.0036 36.397 46.0036 36.397L43.4615 22.574C43.4615 22.574 43.3026 20.4291 40.9988 17.9663C38.6155 15.4242 32.9751 13.1998 26.9375 17.9663C17.2455 25.5134 12.0023 28.8499 8.58627 25.4339C8.10961 24.9573 7.7124 24.4012 7.39463 23.7656L7.23575 23.1301Z" fill="url(#paint0_linear_294_152)"/>
<path d="M56.8078 8.98932C59.1911 8.98932 61.1771 9.7043 62.2099 10.181V13.1203C60.621 12.2465 58.635 11.7698 57.0461 11.7698C54.9806 11.7698 54.1067 12.6437 54.1067 13.8353C54.1067 15.2653 55.6956 16.2186 57.6022 17.2513C60.0649 18.6018 62.9248 20.2701 62.9248 23.6862C62.9248 26.6255 60.9388 28.6116 56.8078 28.6116C54.1862 28.6116 51.8029 27.9761 50.4524 27.42V24.4806C52.2001 25.275 54.5834 25.8311 56.5695 25.8311C58.7144 25.8311 59.5883 24.9572 59.5883 23.6862C59.5883 22.0179 57.8405 21.0646 55.8545 19.9524C53.4712 18.6019 50.7702 17.013 50.7702 13.9148C50.8496 10.9754 52.8357 8.98932 56.8078 8.98932Z" fill="black"/>
<path d="M74.444 8.98932C79.29 8.98932 82.6266 12.3259 82.6266 18.7608C82.6266 25.1956 79.29 28.5322 74.444 28.5322C69.598 28.5322 66.2615 25.1956 66.2615 18.7608C66.2615 12.3259 69.598 8.98932 74.444 8.98932ZM74.444 25.7517C77.1451 25.7517 79.29 23.6067 79.29 18.7608C79.29 13.8353 77.1451 11.7698 74.444 11.7698C71.743 11.7698 69.598 13.9148 69.598 18.7608C69.598 23.6067 71.6635 25.7517 74.444 25.7517Z" fill="black"/>
<path d="M87.2341 9.3071H98.3561V12.0876H90.4118V18.0458H97.5616V20.7468H90.4118V28.2939H87.3136V9.3071H87.2341Z" fill="black"/>
<path d="M106.141 12.0876H100.501V9.3071H114.959V12.0876H109.319V28.2144H106.221V12.0876H106.141Z" fill="black"/>
<path d="M120.044 9.3071L122.745 24.9573H123.063L125.843 11.6109H130.53L133.549 24.9573H133.867L136.568 9.3071H139.587L136.25 28.2144H131.245L128.306 14.7886H127.988L125.287 28.2144H120.203L116.866 9.3071H120.044Z" fill="black"/>
<path d="M146.498 9.3071H151.503L156.985 28.2144H153.648L152.298 23.5273H145.466L144.194 28.2144H141.096L146.498 9.3071ZM151.662 20.8262L149.199 12.0082H148.723L146.26 20.8262H151.662Z" fill="black"/>
<path d="M160.401 9.3071H166.279C170.41 9.3071 172.555 11.4521 172.555 15.027C172.555 17.8869 171.205 19.7935 168.504 20.429L173.906 28.2939H170.251L165.247 20.8262H163.578V28.2939H160.48V9.3071H160.401ZM165.962 18.0458C168.265 18.0458 169.219 17.013 169.219 15.027C169.219 12.9615 168.186 12.0082 165.962 12.0082H163.499V18.1252H165.962V18.0458Z" fill="black"/>
<path d="M177.56 9.3071H188.682V12.0876H180.738V17.2513H187.649V19.9524H180.738V25.4339H189V28.2144H177.64V9.3071H177.56Z" fill="black"/>
<path d="M56.3311 33.537C57.4433 33.537 58.476 33.8548 58.9527 34.0932V35.5231C58.1582 35.1259 57.2049 34.8876 56.49 34.8876C55.4572 34.8876 55.06 35.2848 55.06 35.9203C55.06 36.6353 55.8544 37.0325 56.7283 37.5886C57.9199 38.2242 59.3499 39.0186 59.3499 40.6869C59.3499 42.1168 58.3966 43.0701 56.4105 43.0701C55.1394 43.0701 53.9478 42.7524 53.3123 42.5141V41.0841C54.1861 41.4813 55.2983 41.7196 56.2516 41.7196C57.2844 41.7196 57.6816 41.3224 57.6816 40.6869C57.6816 39.8924 56.8077 39.4158 55.8544 38.8597C54.6628 38.2242 53.3917 37.4297 53.3917 35.9203C53.3917 34.4904 54.345 33.537 56.3311 33.537Z" fill="black"/>
<path d="M72.3784 33.5371C74.7616 33.5371 76.3505 35.1259 76.3505 38.3036C76.3505 41.4019 74.7616 43.0702 72.3784 43.0702C69.9951 43.0702 68.4062 41.4813 68.4062 38.3036C68.4062 35.1259 69.9951 33.5371 72.3784 33.5371ZM72.3784 41.7197C73.7289 41.7197 74.7616 40.6869 74.7616 38.3036C74.7616 35.9204 73.7289 34.8876 72.3784 34.8876C71.0278 34.8876 69.9951 35.9204 69.9951 38.3036C69.9951 40.6869 71.0278 41.7197 72.3784 41.7197Z" fill="black"/>
<path d="M86.0425 33.696H87.5519V41.5607H91.7623V42.9113H86.0425V33.696Z" fill="black"/>
<path d="M101.057 33.696H102.567V39.4158C102.567 41.0841 103.202 41.7196 104.473 41.7196C105.665 41.7196 106.38 41.0841 106.38 39.4158V33.696H107.889V39.4952C107.889 41.7991 106.698 43.0701 104.473 43.0701C102.328 43.0701 101.057 41.8785 101.057 39.4952V33.696Z" fill="black"/>
<path d="M119.806 35.0465H117.025V33.696H124.096V35.0465H121.315V42.9113H119.806V35.0465Z" fill="black"/>
<path d="M137.998 34.967H136.171V41.6402H137.998V42.9113H132.834V41.6402H134.661V34.967H132.914V33.696H137.998V34.967Z" fill="black"/>
<path d="M151.106 33.5371C153.489 33.5371 155.078 35.1259 155.078 38.3036C155.078 41.4019 153.489 43.0702 151.106 43.0702C148.723 43.0702 147.134 41.4813 147.134 38.3036C147.134 35.1259 148.723 33.5371 151.106 33.5371ZM151.106 41.7197C152.456 41.7197 153.489 40.6869 153.489 38.3036C153.489 35.9204 152.456 34.8876 151.106 34.8876C149.755 34.8876 148.723 35.9204 148.723 38.3036C148.723 40.6869 149.755 41.7197 151.106 41.7197Z" fill="black"/>
<path d="M164.77 33.696H167.392L170.013 41.243H170.172V33.696H171.681V42.9113H169.06L166.438 35.3642H166.279V42.9113H164.77V33.696Z" fill="black"/>
<path d="M184.313 33.5371C185.425 33.5371 186.458 33.8549 186.934 34.0932V35.5231C186.14 35.1259 185.187 34.8876 184.472 34.8876C183.439 34.8876 183.042 35.2848 183.042 35.9204C183.042 36.6353 183.836 37.0325 184.71 37.5886C185.902 38.2242 187.332 39.0186 187.332 40.6869C187.332 42.1169 186.378 43.0702 184.392 43.0702C183.121 43.0702 181.929 42.7524 181.294 42.5141V41.0841C182.168 41.4813 183.28 41.7197 184.233 41.7197C185.266 41.7197 185.663 41.3224 185.663 40.6869C185.663 39.8925 184.789 39.4158 183.836 38.8597C182.644 38.2242 181.373 37.4298 181.373 35.9204C181.453 34.4904 182.406 33.5371 184.313 33.5371Z" fill="black"/>
<defs>
<linearGradient id="paint0_linear_294_152" x1="0.0153058" y1="22.9274" x2="46.2322" y2="22.9274" gradientUnits="userSpaceOnUse">
<stop stop-color="#FFEF26"/>
<stop offset="0.1541" stop-color="#FFE000"/>
<stop offset="0.3375" stop-color="#FFD300"/>
<stop offset="0.5265" stop-color="#FECB00"/>
<stop offset="0.7278" stop-color="#FDC800"/>
<stop offset="1" stop-color="#F18F34"/>
</linearGradient>
</defs>
</svg>
