<svg width="103" height="103" viewBox="0 0 103 103" fill="none" xmlns="http://www.w3.org/2000/svg">
<path opacity="0.2" d="M95.9417 72.8073L9.69097 87.1173C3.02541 88.2232 -1.97006 81.2279 1.20146 75.2292L37.0443 7.43491C39.6795 2.45067 46.3982 1.49971 50.2327 5.56824L100.641 59.0526C105.134 63.8198 102.431 71.7306 95.9417 72.8073Z" fill="#A5A5A5"/>
<path d="M46.4995 64.1646H37.0245C28.5995 64.1646 26.4995 62.0646 26.4995 53.6396V38.6396C26.4995 30.2146 28.5995 28.1146 37.0245 28.1146H63.3495C71.7745 28.1146 73.8745 30.2146 73.8745 38.6396" stroke="#231F20" stroke-width="2.5" stroke-linecap="round" stroke-linejoin="round"/>
<path d="M46.4995 75.4656V64.1656" stroke="#231F20" stroke-width="2.5" stroke-linecap="round" stroke-linejoin="round"/>
<path d="M26.4995 54.1656H46.4995" stroke="#231F20" stroke-width="2.5" stroke-linecap="round" stroke-linejoin="round"/>
<path d="M38.3496 75.4657H46.4996" stroke="#231F20" stroke-width="2.5" stroke-linecap="round" stroke-linejoin="round"/>
<path d="M76.4997 53.7898V68.0648C76.4997 73.9898 75.0247 75.4648 69.0997 75.4648H60.2247C54.2997 75.4648 52.8247 73.9898 52.8247 68.0648V53.7898C52.8247 47.8648 54.2997 46.3898 60.2247 46.3898H69.0997C75.0247 46.3898 76.4997 47.8648 76.4997 53.7898Z" stroke="#231F20" stroke-width="2.5" stroke-linecap="round" stroke-linejoin="round"/>
<path d="M64.6108 67.4152H64.6332" stroke="#231F20" stroke-width="2.5" stroke-linecap="round" stroke-linejoin="round"/>
<path fill-rule="evenodd" clip-rule="evenodd" d="M92.364 26.4861L101.193 35.5688L92.364 44.6515L83.5347 35.5688L92.364 26.4861ZM98.6446 35.5688L92.364 29.1079L86.1744 35.5688L92.364 41.9361L98.6446 35.5688Z" fill="#FDC80A"/>
</svg>
