<svg width="79" height="103" viewBox="0 0 79 103" fill="none" xmlns="http://www.w3.org/2000/svg">
<path opacity="0.2" d="M0.225098 94.5738V8.47935C0.225098 1.68727 8.01524 -2.15467 13.404 1.9798L72.3314 47.1914C76.7351 50.5701 76.5749 57.2579 72.0145 60.4218L13.087 101.305C7.65443 105.074 0.225098 101.186 0.225098 94.5738Z" fill="#A5A5A5"/>
<path d="M60.0247 39.2902V64.2902C60.0247 71.7902 56.2747 76.7902 47.5247 76.7902H27.5247C18.7747 76.7902 15.0247 71.7902 15.0247 64.2902V39.2902C15.0247 31.7902 18.7747 26.7902 27.5247 26.7902H47.5247C56.2747 26.7902 60.0247 31.7902 60.0247 39.2902Z" stroke="#231F20" stroke-width="2.5" stroke-miterlimit="10" stroke-linecap="round" stroke-linejoin="round"/>
<path d="M43.7747 33.0402V38.0402C43.7747 40.7902 46.0247 43.0402 48.7747 43.0402H53.7747" stroke="#231F20" stroke-width="2.5" stroke-miterlimit="10" stroke-linecap="round" stroke-linejoin="round"/>
<path d="M32.5247 54.2902L27.5247 59.2902L32.5247 64.2902" stroke="#231F20" stroke-width="2.5" stroke-miterlimit="10" stroke-linecap="round" stroke-linejoin="round"/>
<path d="M42.5247 54.2902L47.5247 59.2902L42.5247 64.2902" stroke="#231F20" stroke-width="2.5" stroke-miterlimit="10" stroke-linecap="round" stroke-linejoin="round"/>
<path d="M70.4109 70.4273C71.4121 75.2159 75.9633 77.294 77.6018 77.9264C77.7838 78.0168 77.7838 78.2878 77.6018 78.2878C75.9633 78.9203 71.4121 80.9983 70.4109 85.8773C70.3199 86.058 70.0468 86.058 69.9558 85.8773C68.9545 80.9983 64.4033 78.9203 62.7649 78.2878C62.4918 78.2878 62.4918 78.0168 62.7649 77.9264C64.4033 77.294 68.9545 75.2159 69.9558 70.4273C70.0468 70.1562 70.3199 70.1562 70.4109 70.4273V70.4273Z" stroke="#FDC80A" stroke-width="1.82048"/>
</svg>
