<svg width="104" height="120" viewBox="0 0 104 120" fill="none" xmlns="http://www.w3.org/2000/svg">
<path opacity="0.2" d="M2.71952 72.4718L63.024 9.99324C67.7504 5.09646 76.0407 7.76408 77.0245 14.4983L87.8035 88.2784C88.6023 93.7466 83.8687 98.421 78.411 97.5532L7.32757 86.2516C0.784726 85.2113 -1.88141 77.2386 2.71952 72.4718Z" fill="#A5A5A5"/>
<path d="M40.5977 79.0405H46.8977C49.2977 79.0405 50.8477 77.3404 50.3977 75.2654L49.3727 70.7406H38.1227L37.0977 75.2654C36.6477 77.2154 38.3477 79.0405 40.5977 79.0405Z" stroke="#231F20" stroke-width="2.5" stroke-linecap="round" stroke-linejoin="round"/>
<path d="M49.3733 70.7156L53.6983 66.8655C56.1233 64.7155 56.2233 63.2154 54.2983 60.7904L46.6733 51.1156C45.0733 49.0906 42.4483 49.0906 40.8483 51.1156L33.2233 60.7904C31.2983 63.2154 31.2983 64.7905 33.8233 66.8655L38.1483 70.7156" stroke="#231F20" stroke-width="2.5" stroke-linecap="round" stroke-linejoin="round"/>
<path d="M43.7476 50.5905V56.9155" stroke="#231F20" stroke-width="2.5" stroke-linecap="round" stroke-linejoin="round"/>
<path d="M45.0232 35.2902H42.5232C41.1482 35.2902 40.0232 34.1652 40.0232 32.7902V30.2902C40.0232 28.9152 41.1482 27.7902 42.5232 27.7902H45.0232C46.3982 27.7902 47.5232 28.9152 47.5232 30.2902V32.7902C47.5232 34.1652 46.3982 35.2902 45.0232 35.2902Z" stroke="#231F20" stroke-width="2.5" stroke-linecap="round" stroke-linejoin="round"/>
<path d="M21.8982 58.2151H24.3982C25.7732 58.2151 26.8982 57.0901 26.8982 55.7151V53.2151C26.8982 51.8401 25.7732 50.715 24.3982 50.715H21.8982C20.5232 50.715 19.3982 51.8401 19.3982 53.2151V55.7151C19.3982 57.0901 20.5232 58.2151 21.8982 58.2151Z" stroke="#231F20" stroke-width="2.5" stroke-linecap="round" stroke-linejoin="round"/>
<path d="M65.5481 58.2151H63.0481C61.6731 58.2151 60.5481 57.0901 60.5481 55.7151V53.2151C60.5481 51.8401 61.6731 50.715 63.0481 50.715H65.5481C66.9231 50.715 68.0481 51.8401 68.0481 53.2151V55.7151C68.0481 57.0901 66.9231 58.2151 65.5481 58.2151Z" stroke="#231F20" stroke-width="2.5" stroke-linecap="round" stroke-linejoin="round"/>
<path d="M40.0232 31.6903C30.4982 32.8153 23.0981 40.8903 23.0981 50.7153" stroke="#231F20" stroke-width="2.5" stroke-linecap="round" stroke-linejoin="round"/>
<path d="M64.3482 50.7153C64.3482 40.9153 56.9982 32.8653 47.5232 31.6903" stroke="#231F20" stroke-width="2.5" stroke-linecap="round" stroke-linejoin="round"/>
<path d="M35.0317 7.74719L39.1278 11.8433" stroke="#FDC80A" stroke-width="2.6397"/>
<path d="M48.1395 8.02014L44.0435 12.1162" stroke="#FDC80A" stroke-width="2.6397"/>
<path d="M47.8666 21.2185L43.7705 17.1224" stroke="#FDC80A" stroke-width="2.6397"/>
<path d="M34.7588 20.8547L38.8549 16.8496" stroke="#FDC80A" stroke-width="2.6397"/>
</svg>
